<svg viewBox="0 0 24 24" fill="currentColor" xmlns="http://www.w3.org/2000/svg">
  <mask id="mask0_11342_2528" style="mask-type:alpha" maskUnits="userSpaceOnUse" x="0" y="0" width="24" height="24">
    <rect width="24" height="24" fill="currentColor"/>
  </mask>
  <g mask="url(#mask0_11342_2528)">
    <path d="M10.0579 20.773V15.1523L11.4386 11.2078C11.5026 11.0756 11.5898 10.9663 11.7001 10.8798C11.8103 10.7933 11.9564 10.75 12.1386 10.75H19.3616C19.5343 10.75 19.6823 10.7933 19.8056 10.8798C19.9288 10.9663 20.0141 11.0756 20.0616 11.2078L21.4424 15.1523V20.773C21.4424 20.9238 21.3909 21.0507 21.2881 21.1535C21.1853 21.2563 21.0585 21.3078 20.9079 21.3078H20.4771C20.3263 21.3078 20.1994 21.2563 20.0966 21.1535C19.9938 21.0507 19.9424 20.9238 19.9424 20.773V19.7115H11.5579V20.773C11.5579 20.9238 11.5064 21.0507 11.4036 21.1535C11.3008 21.2563 11.1739 21.3078 11.0231 21.3078H10.5924C10.4415 21.3078 10.3148 21.2563 10.2121 21.1535C10.1093 21.0507 10.0579 20.9238 10.0579 20.773ZM11.6731 14.173H19.8271L19.0501 11.9423H12.4501L11.6731 14.173ZM12.7886 17.846C13.0556 17.846 13.2794 17.7558 13.4599 17.5753C13.6405 17.3946 13.7309 17.1708 13.7309 16.9038C13.7309 16.6368 13.6405 16.413 13.4599 16.2325C13.2794 16.0518 13.0556 15.9615 12.7886 15.9615C12.5216 15.9615 12.2978 16.0518 12.1171 16.2325C11.9366 16.413 11.8464 16.6368 11.8464 16.9038C11.8464 17.1708 11.9366 17.3946 12.1171 17.5753C12.2978 17.7558 12.5216 17.846 12.7886 17.846ZM18.7116 17.846C18.9786 17.846 19.2024 17.7558 19.3831 17.5753C19.5636 17.3946 19.6539 17.1708 19.6539 16.9038C19.6539 16.6368 19.5636 16.413 19.3831 16.2325C19.2024 16.0518 18.9786 15.9615 18.7116 15.9615C18.4446 15.9615 18.2209 16.0518 18.0404 16.2325C17.8597 16.413 17.7694 16.6368 17.7694 16.9038C17.7694 17.1708 17.8597 17.3946 18.0404 17.5753C18.2209 17.7558 18.4446 17.846 18.7116 17.846ZM6.17311 13.3078V11.5385H7.94236V13.3078H6.17311ZM10.6731 7.80775V6.0385H12.4424V7.80775H10.6731ZM6.17311 17.3078V15.5385H7.94236V17.3078H6.17311ZM6.17311 21.3078V19.5385H7.94236V21.3078H6.17311ZM2.55786 21.3078V7.923H7.05786V2.423H16.0576V8.6345H14.5579V3.923H8.55786V9.423H4.05786V21.3078H2.55786ZM11.2501 18.5193H20.2501V15.3653H11.2501V18.5193Z" fill="currentColor"/>
  </g>
</svg>
