<svg viewBox="0 0 78 78" fill="none" xmlns="http://www.w3.org/2000/svg">
  <g clip-path="url(#clip0_9264_740)">
    <g clip-path="url(#clip1_9264_740)">
      <rect width="77" height="77" transform="translate(0.00488281 0.600904)" fill="white"/>
      <path d="M76.5 39C76.5 59.7045 59.493 76.5 38.5 76.5C17.507 76.5 0.5 59.7045 0.5 39C0.5 18.2955 17.507 1.5 38.5 1.5C59.493 1.5 76.5 18.2955 76.5 39Z" fill="#F7F7F8" stroke="#E3E5E8"/>
      <path fill-rule="evenodd" clip-rule="evenodd" d="M57.1886 25.804C58.264 26.876 58.264 28.6141 57.1886 29.6862L34.6089 52.196C33.5335 53.268 31.79 53.268 30.7147 52.196L20.8016 42.3136C19.7263 41.2416 19.7263 39.5035 20.8016 38.4315C21.877 37.3594 23.6205 37.3594 24.6958 38.4315L32.6618 46.3727L53.2944 25.804C54.3697 24.732 56.1132 24.732 57.1886 25.804Z" fill="#F6F7FB" stroke="#919DC9" stroke-linecap="round" stroke-linejoin="round" stroke-dasharray="2 2"/>
    </g>
  </g>
  <defs>
    <clipPath id="clip0_9264_740">
      <rect width="78" height="78" fill="white"/>
    </clipPath>
    <clipPath id="clip1_9264_740">
      <rect width="77" height="77" fill="white" transform="translate(0.00488281 0.600904)"/>
    </clipPath>
  </defs>
</svg>
