<svg viewBox="0 0 85 87" fill="none" xmlns="http://www.w3.org/2000/svg">
  <g clip-path="url(#clip0_4294_41740)">
    <g clip-path="url(#clip1_4294_41740)">
      <mask id="mask0_4294_41740" style="mask-type:alpha" maskUnits="userSpaceOnUse" x="0" y="9" width="77" height="78">
        <circle cx="38.5" cy="48.3835" r="38.5" fill="#F7F7F8"/>
      </mask>
      <g mask="url(#mask0_4294_41740)">
        <circle cx="38.5" cy="48.3835" r="38" fill="#F7F7F8" stroke="#E3E5E8"/>
        <path d="M29.46 28.1335L45.75 44.7835V73.156C45.75 75.631 43.635 77.6335 41.025 77.6335H0.975C-1.635 77.6335 -3.75 75.631 -3.75 73.156V32.611C-3.75 30.136 -1.635 28.1335 0.975 28.1335H29.46ZM31.8757 27.3861C30.9351 26.4251 29.6471 25.8835 28.3024 25.8835H0.975C-2.8725 25.8835 -6 28.876 -6 32.611V73.156C-6 76.891 -2.8725 79.8835 0.975 79.8835H41.025C44.85 79.8835 48 76.891 48 73.156V45.9006C48 44.5931 47.4879 43.3377 46.5733 42.4033L31.8757 27.3861Z" fill="#BABEC4"/>
        <path d="M29.0991 27.9312V43.4837C29.0991 44.5883 29.9945 45.4837 31.0991 45.4837H46.9191" stroke="#BABEC4" stroke-width="2" stroke-miterlimit="10"/>
        <path d="M10.1011 59.6337H3.10114C2.54885 59.6337 2.10114 60.0814 2.10114 60.6337V72.1337C2.10114 72.686 2.54885 73.1337 3.10114 73.1337H10.1011C10.6534 73.1337 11.1011 72.686 11.1011 72.1337V60.6337C11.1011 60.0814 10.6534 59.6337 10.1011 59.6337Z" fill="#293F96" fill-opacity="0.04" stroke="#293F96" stroke-opacity="0.5" stroke-linecap="round" stroke-dasharray="2 2"/>
        <path d="M23.6005 46.1334H16.6005C16.0482 46.1334 15.6005 46.5811 15.6005 47.1334V72.1334C15.6005 72.6857 16.0482 73.1334 16.6005 73.1334H23.6005C24.1528 73.1334 24.6005 72.6857 24.6005 72.1334V47.1334C24.6005 46.5811 24.1528 46.1334 23.6005 46.1334Z" fill="#293F96" fill-opacity="0.04" stroke="#293F96" stroke-opacity="0.5" stroke-linecap="round" stroke-dasharray="2 2"/>
        <path d="M37.1017 55.1339H30.1017C29.5495 55.1339 29.1017 55.5816 29.1017 56.1339V72.1339C29.1017 72.6862 29.5495 73.1339 30.1017 73.1339H37.1017C37.654 73.1339 38.1017 72.6862 38.1017 72.1339V56.1339C38.1017 55.5816 37.654 55.1339 37.1017 55.1339Z" fill="#293F96" fill-opacity="0.04" stroke="#293F96" stroke-opacity="0.5" stroke-linecap="round" stroke-dasharray="2 2"/>
      </g>
    </g>
    <g clip-path="url(#clip2_4294_41740)">
      <g filter="url(#filter0_b_4294_41740)">
        <path d="M62.4404 0.717445C52.1737 0.717445 43.832 9.05911 43.832 19.3258C43.832 29.5924 52.1737 37.9341 62.4404 37.9341C72.707 37.9341 81.0487 29.5924 81.0487 19.3258C81.0487 9.05911 72.7254 0.717445 62.4404 0.717445Z" fill="#293F96" fill-opacity="0.08"/>
      </g>
      <path d="M62.4404 2.55078C71.6987 2.55078 79.2154 10.0858 79.2154 19.3258C79.2154 28.5658 71.6804 36.1008 62.4404 36.1008C53.2004 36.1008 45.6654 28.5841 45.6654 19.3258C45.6654 10.0674 53.2004 2.55078 62.4404 2.55078ZM62.4404 0.717445C52.1737 0.717445 43.832 9.05911 43.832 19.3258C43.832 29.5924 52.1737 37.9341 62.4404 37.9341C72.707 37.9341 81.0487 29.5924 81.0487 19.3258C81.0487 9.05911 72.7254 0.717445 62.4404 0.717445Z" fill="#BABEC4"/>
      <path d="M75.732 32.6187L84.1654 41.052" stroke="#BABEC4" stroke-width="2" stroke-linecap="round" stroke-linejoin="round"/>
    </g>
  </g>
  <defs>
    <filter id="filter0_b_4294_41740" x="41.832" y="-1.28255" width="41.2167" height="41.2167" filterUnits="userSpaceOnUse" color-interpolation-filters="sRGB">
      <feFlood flood-opacity="0" result="BackgroundImageFix"/>
      <feGaussianBlur in="BackgroundImageFix" stdDeviation="1"/>
      <feComposite in2="SourceAlpha" operator="in" result="effect1_backgroundBlur_4294_41740"/>
      <feBlend mode="normal" in="SourceGraphic" in2="effect1_backgroundBlur_4294_41740" result="shape"/>
    </filter>
    <clipPath id="clip0_4294_41740">
      <rect width="84.1654" height="86.166" fill="white" transform="translate(0 0.717445)"/>
    </clipPath>
    <clipPath id="clip1_4294_41740">
      <rect width="77" height="77" fill="white" transform="translate(0 9.88346)"/>
    </clipPath>
    <clipPath id="clip2_4294_41740">
      <rect width="40.3333" height="40.3346" fill="white" transform="translate(43.832 0.717445)"/>
    </clipPath>
  </defs>
</svg>
