<svg viewBox="0 0 24 24" fill="currentColor" xmlns="http://www.w3.org/2000/svg">
  <mask id="mask0_4266_29112" style="mask-type:alpha" maskUnits="userSpaceOnUse" x="0" y="0" width="24" height="24">
    <rect width="24" height="24" fill="currentColor"/>
  </mask>
  <g mask="url(#mask0_4266_29112)">
    <path d="M0 18V16.425C0 15.7083 0.366667 15.125 1.1 14.675C1.83333 14.225 2.8 14 4 14C4.21667 14 4.425 14.004 4.625 14.012C4.825 14.0207 5.01667 14.0417 5.2 14.075C4.96667 14.425 4.79167 14.7917 4.675 15.175C4.55833 15.5583 4.5 15.9583 4.5 16.375V18H0ZM6 18V16.375C6 15.8417 6.146 15.354 6.438 14.912C6.72933 14.4707 7.14167 14.0833 7.675 13.75C8.20833 13.4167 8.846 13.1667 9.588 13C10.3293 12.8333 11.1333 12.75 12 12.75C12.8833 12.75 13.696 12.8333 14.438 13C15.1793 13.1667 15.8167 13.4167 16.35 13.75C16.8833 14.0833 17.2917 14.4707 17.575 14.912C17.8583 15.354 18 15.8417 18 16.375V18H6ZM19.5 18V16.375C19.5 15.9417 19.4457 15.5333 19.337 15.15C19.229 14.7667 19.0667 14.4083 18.85 14.075C19.0333 14.0417 19.221 14.0207 19.413 14.012C19.6043 14.004 19.8 14 20 14C21.2 14 22.1667 14.2207 22.9 14.662C23.6333 15.104 24 15.6917 24 16.425V18H19.5ZM8.125 16H15.9C15.7333 15.6667 15.2707 15.375 14.512 15.125C13.754 14.875 12.9167 14.75 12 14.75C11.0833 14.75 10.246 14.875 9.488 15.125C8.72933 15.375 8.275 15.6667 8.125 16ZM4 13C3.45 13 2.97933 12.804 2.588 12.412C2.196 12.0207 2 11.55 2 11C2 10.4333 2.196 9.95833 2.588 9.575C2.97933 9.19167 3.45 9 4 9C4.56667 9 5.04167 9.19167 5.425 9.575C5.80833 9.95833 6 10.4333 6 11C6 11.55 5.80833 12.0207 5.425 12.412C5.04167 12.804 4.56667 13 4 13ZM20 13C19.45 13 18.979 12.804 18.587 12.412C18.1957 12.0207 18 11.55 18 11C18 10.4333 18.1957 9.95833 18.587 9.575C18.979 9.19167 19.45 9 20 9C20.5667 9 21.0417 9.19167 21.425 9.575C21.8083 9.95833 22 10.4333 22 11C22 11.55 21.8083 12.0207 21.425 12.412C21.0417 12.804 20.5667 13 20 13ZM12 12C11.1667 12 10.4583 11.7083 9.875 11.125C9.29167 10.5417 9 9.83333 9 9C9 8.15 9.29167 7.43733 9.875 6.862C10.4583 6.28733 11.1667 6 12 6C12.85 6 13.5623 6.28733 14.137 6.862C14.7123 7.43733 15 8.15 15 9C15 9.83333 14.7123 10.5417 14.137 11.125C13.5623 11.7083 12.85 12 12 12ZM12 10C12.2833 10 12.521 9.904 12.713 9.712C12.9043 9.52067 13 9.28333 13 9C13 8.71667 12.9043 8.479 12.713 8.287C12.521 8.09567 12.2833 8 12 8C11.7167 8 11.4793 8.09567 11.288 8.287C11.096 8.479 11 8.71667 11 9C11 9.28333 11.096 9.52067 11.288 9.712C11.4793 9.904 11.7167 10 12 10Z" fill="currentColor"/>
  </g>
</svg>
