<svg viewBox="0 0 16 16" fill="currentColor" xmlns="http://www.w3.org/2000/svg">
  <g clip-path="url(#clip0_4274_39980)">
    <mask id="mask0_4274_39980" style="mask-type:alpha" maskUnits="userSpaceOnUse" x="0" y="0" width="16" height="16">
      <rect width="16" height="16" fill="currentColor"/>
    </mask>
    <g mask="url(#mask0_4274_39980)">
      <path d="M7.96683 12C8.20016 12 8.3975 11.9193 8.55883 11.758C8.71972 11.5971 8.80016 11.4 8.80016 11.1666C8.80016 10.9333 8.71972 10.7362 8.55883 10.5753C8.3975 10.414 8.20016 10.3333 7.96683 10.3333C7.7335 10.3333 7.53616 10.414 7.37483 10.5753C7.21394 10.7362 7.1335 10.9333 7.1335 11.1666C7.1335 11.4 7.21394 11.5971 7.37483 11.758C7.53616 11.9193 7.7335 12 7.96683 12ZM7.36683 9.43331H8.60016C8.60016 9.06665 8.64194 8.77776 8.7255 8.56665C8.80861 8.35554 9.04461 8.06665 9.4335 7.69998C9.72239 7.41109 9.95016 7.13598 10.1168 6.87465C10.2835 6.61376 10.3668 6.29998 10.3668 5.93331C10.3668 5.31109 10.1391 4.83331 9.6835 4.49998C9.22794 4.16665 8.68905 3.99998 8.06683 3.99998C7.4335 3.99998 6.91972 4.16665 6.5255 4.49998C6.13083 4.83331 5.85572 5.23331 5.70016 5.69998L6.80016 6.13331C6.85572 5.93331 6.98083 5.71665 7.1755 5.48331C7.36972 5.24998 7.66683 5.13331 8.06683 5.13331C8.42239 5.13331 8.68905 5.23042 8.86683 5.42465C9.04461 5.61931 9.1335 5.83331 9.1335 6.06665C9.1335 6.28887 9.06683 6.49709 8.9335 6.69131C8.80016 6.88598 8.6335 7.06665 8.4335 7.23331C7.94461 7.66665 7.64461 7.99442 7.5335 8.21665C7.42239 8.43887 7.36683 8.84442 7.36683 9.43331ZM8.00016 14.6666C7.07794 14.6666 6.21127 14.4915 5.40016 14.1413C4.58905 13.7915 3.8835 13.3166 3.2835 12.7166C2.6835 12.1166 2.20861 11.4111 1.85883 10.6C1.50861 9.78887 1.3335 8.9222 1.3335 7.99998C1.3335 7.07776 1.50861 6.21109 1.85883 5.39998C2.20861 4.58887 2.6835 3.88331 3.2835 3.28331C3.8835 2.68331 4.58905 2.2082 5.40016 1.85798C6.21127 1.5082 7.07794 1.33331 8.00016 1.33331C8.92239 1.33331 9.78905 1.5082 10.6002 1.85798C11.4113 2.2082 12.1168 2.68331 12.7168 3.28331C13.3168 3.88331 13.7917 4.58887 14.1415 5.39998C14.4917 6.21109 14.6668 7.07776 14.6668 7.99998C14.6668 8.9222 14.4917 9.78887 14.1415 10.6C13.7917 11.4111 13.3168 12.1166 12.7168 12.7166C12.1168 13.3166 11.4113 13.7915 10.6002 14.1413C9.78905 14.4915 8.92239 14.6666 8.00016 14.6666ZM8.00016 13.3333C9.48905 13.3333 10.7502 12.8166 11.7835 11.7833C12.8168 10.75 13.3335 9.48887 13.3335 7.99998C13.3335 6.51109 12.8168 5.24998 11.7835 4.21665C10.7502 3.18331 9.48905 2.66665 8.00016 2.66665C6.51127 2.66665 5.25016 3.18331 4.21683 4.21665C3.1835 5.24998 2.66683 6.51109 2.66683 7.99998C2.66683 9.48887 3.1835 10.75 4.21683 11.7833C5.25016 12.8166 6.51127 13.3333 8.00016 13.3333Z" fill="currentColor"/>
    </g>
  </g>
  <defs>
    <clipPath id="clip0_4274_39980">
      <rect width="16" height="16" fill="white"/>
    </clipPath>
  </defs>
</svg>
