<svg viewBox="0 0 16 16" fill="currentColor" xmlns="http://www.w3.org/2000/svg">
  <g clip-path="url(#clip0_4274_39964)">
    <mask id="mask0_4274_39964" style="mask-type:alpha" maskUnits="userSpaceOnUse" x="0" y="0" width="16" height="16">
      <rect width="16" height="16" fill="currentColor"/>
    </mask>
    <g mask="url(#mask0_4274_39964)">
      <path d="M7.99984 8.00004C8.3665 8.00004 8.6805 7.86937 8.94184 7.60804C9.20273 7.34715 9.33317 7.03337 9.33317 6.66671C9.33317 6.30004 9.20273 5.98604 8.94184 5.72471C8.6805 5.46382 8.3665 5.33337 7.99984 5.33337C7.63317 5.33337 7.31939 5.46382 7.0585 5.72471C6.79717 5.98604 6.6665 6.30004 6.6665 6.66671C6.6665 7.03337 6.79717 7.34715 7.0585 7.60804C7.31939 7.86937 7.63317 8.00004 7.99984 8.00004ZM7.99984 12.9C9.35539 11.6556 10.3609 10.5249 11.0165 9.50804C11.6721 8.4916 11.9998 7.58893 11.9998 6.80004C11.9998 5.58893 11.6136 4.59715 10.8412 3.82471C10.0692 3.05271 9.12206 2.66671 7.99984 2.66671C6.87761 2.66671 5.93028 3.05271 5.15784 3.82471C4.38584 4.59715 3.99984 5.58893 3.99984 6.80004C3.99984 7.58893 4.32761 8.4916 4.98317 9.50804C5.63873 10.5249 6.64428 11.6556 7.99984 12.9ZM7.99984 14.6667C6.21095 13.1445 4.87495 11.7305 3.99184 10.4247C3.10828 9.11937 2.6665 7.91115 2.6665 6.80004C2.6665 5.13337 3.20273 3.8056 4.27517 2.81671C5.34717 1.82782 6.58873 1.33337 7.99984 1.33337C9.41095 1.33337 10.6525 1.82782 11.7245 2.81671C12.7969 3.8056 13.3332 5.13337 13.3332 6.80004C13.3332 7.91115 12.8916 9.11937 12.0085 10.4247C11.1249 11.7305 9.78873 13.1445 7.99984 14.6667Z" fill="currentColor"/>
    </g>
  </g>
  <defs>
    <clipPath id="clip0_4274_39964">
      <rect width="16" height="16" fill="white"/>
    </clipPath>
  </defs>
</svg>
