<svg viewBox="0 0 399 170" fill="none" xmlns="http://www.w3.org/2000/svg">
  <g clip-path="url(#clip0_4360_40654)">
    <path d="M42.9759 104.011C42.0264 104.006 41.1074 103.732 40.3102 103.225C38.8632 102.303 38 100.733 38 99.02L38.0152 57.5833L83.1489 57.5934L83.1895 89.322C83.1895 90.6545 82.6716 91.9112 81.7221 92.8536C80.7778 93.796 79.5185 94.3179 78.1831 94.3179H78.1527C75.4057 94.3027 73.1768 92.0682 73.1768 89.322L73.1361 67.5751H48.023L48.0077 99.0148C48.0077 101.771 45.7635 104.011 43.0013 104.006H42.9759V104.011Z" fill="#293F96"/>
    <path d="M60.4064 52.7648C64.4921 52.7648 67.8041 49.4596 67.8041 45.3824C67.8041 41.3052 64.4921 38 60.4064 38C56.3208 38 53.0088 41.3052 53.0088 45.3824C53.0088 49.4596 56.3208 52.7648 60.4064 52.7648Z" fill="#293F96"/>
    <path d="M95.8273 65.7155C96.7768 65.7206 97.6958 65.9941 98.493 66.5008C99.9401 67.423 100.803 68.9988 100.803 70.7114L100.788 112.143L55.6543 112.133L55.6138 80.4043C55.6138 79.0717 56.1317 77.8151 57.0811 76.8726C58.0255 75.9303 59.2847 75.4084 60.6201 75.4084H60.6506C63.3975 75.4235 65.6265 77.6581 65.6265 80.4043L65.6672 102.151H90.7854L90.8006 70.7114C90.8006 67.955 93.0449 65.7155 95.807 65.7206H95.8324L95.8273 65.7155Z" fill="#F16752"/>
    <path d="M78.3807 131.691C82.4467 131.691 85.7429 128.402 85.7429 124.344C85.7429 120.286 82.4467 116.997 78.3807 116.997C74.3147 116.997 71.0186 120.286 71.0186 124.344C71.0186 128.402 74.3147 131.691 78.3807 131.691Z" fill="#F16752"/>
    <path d="M351.194 76.3712H350.031C349.737 76.3712 349.493 76.128 349.493 75.8341C349.493 75.5402 349.737 75.297 350.031 75.297H353.565C353.86 75.297 354.103 75.5402 354.103 75.8341C354.103 76.128 353.86 76.3712 353.565 76.3712H352.402V80.1257C352.402 80.4551 352.123 80.7286 351.798 80.7286C351.473 80.7286 351.194 80.45 351.194 80.1257V76.3712Z" fill="#293F96"/>
    <path d="M354.672 75.8187C354.672 75.4894 354.93 75.231 355.261 75.231H355.397C355.641 75.231 355.829 75.3678 355.935 75.5401L357.337 77.8404L358.774 75.5401C358.896 75.3323 359.053 75.231 359.292 75.231H359.429C359.738 75.231 360.003 75.4894 360.003 75.8187V80.161C360.003 80.4701 359.744 80.7336 359.429 80.7336C359.114 80.7336 358.855 80.4752 358.855 80.161V77.3793L357.815 78.9855C357.692 79.178 357.556 79.2946 357.327 79.2946C357.098 79.2946 356.962 79.1933 356.824 78.9855L355.804 77.4097V80.161C355.804 80.4701 355.545 80.7336 355.23 80.7336C354.916 80.7336 354.657 80.4752 354.657 80.161V75.8187H354.672Z" fill="#293F96"/>
    <path d="M176.617 93.5324C176.617 80.9312 184.309 74.5369 193.408 74.5369C199.177 74.5369 204.305 77.349 206.422 82.4056V78.4383C206.422 76.3913 207.575 75.2411 209.626 75.2411H210.392C212.444 75.2411 213.597 76.3913 213.597 78.4383V108.566C213.597 110.613 212.444 111.763 210.392 111.763H209.626C207.575 111.763 206.422 110.613 206.422 108.566V104.857C204.371 109.782 199.181 112.66 193.474 112.66C184.376 112.66 176.617 106.2 176.617 93.5375V93.5324ZM206.615 93.5324C206.615 85.5369 201.938 80.612 195.14 80.612C188.341 80.612 183.797 85.4711 183.797 93.5324C183.797 101.594 188.412 106.519 195.272 106.519C202.131 106.519 206.615 101.594 206.615 93.5324Z" fill="#293F96"/>
    <path d="M254.486 75.2412C256.537 75.2412 257.689 76.3913 257.689 78.4383V105.495C257.689 119.181 251.216 125.069 239.101 125.069C232.048 125.069 226.472 122.576 223.335 118.031C221.989 116.176 222.889 114.514 225.001 114.003L225.706 113.81C227.499 113.364 228.656 114.003 229.87 115.472C231.987 117.904 235.252 119.373 239.162 119.373C246.402 119.373 250.505 115.791 250.505 106.646V103.448C248.453 108.247 243.265 110.998 237.557 110.998C228.393 110.998 220.699 104.923 220.699 92.7674C220.699 80.612 228.393 74.6028 237.491 74.6028C243.265 74.6028 248.453 77.354 250.499 82.2182V78.4434C250.499 76.3964 251.652 75.2462 253.704 75.2462H254.476L254.486 75.2412ZM250.642 92.7674C250.642 84.8986 246.092 80.1053 239.232 80.1053C232.373 80.1053 227.89 84.9036 227.89 92.7674C227.89 100.631 232.439 105.495 239.298 105.495C246.158 105.495 250.642 100.697 250.642 92.7674Z" fill="#293F96"/>
    <path d="M285.245 74.6028C295.369 74.6028 300.05 80.4245 300.05 92.0023V108.632C300.05 110.679 298.898 111.829 296.847 111.829H296.08C294.028 111.829 292.876 110.679 292.876 108.632V92.5799C292.876 84.5844 289.8 80.8096 283.006 80.8096C276.212 80.8096 273.262 85.3495 273.262 93.4109V108.632C273.262 110.679 272.109 111.829 270.058 111.829H269.286C267.235 111.829 266.082 110.679 266.082 108.632V78.4434C266.082 76.3964 267.235 75.2462 269.286 75.2462H270.058C272.109 75.2462 273.262 76.3964 273.262 78.4434V82.0814C274.928 77.8404 279.091 74.6078 285.245 74.6078V74.6028Z" fill="#293F96"/>
    <path d="M308.114 108.627V78.4386C308.114 76.3916 309.246 75.2415 311.261 75.2415H312.079C314.09 75.2415 315.228 76.3916 315.228 78.4386V108.627C315.228 110.674 314.095 111.824 312.079 111.824H311.261C309.251 111.824 308.114 110.674 308.114 108.627Z" fill="#293F96"/>
    <path d="M340.051 112.341C330.627 112.341 326.337 108.439 326.337 97.2468V80.8099H324.22C322.168 80.8099 321.016 79.7864 321.016 77.9978C321.016 76.2092 321.975 75.2465 323.707 75.2465H326.337V71.411C326.337 69.4906 327.296 68.3404 329.155 67.9553L330.053 67.7628C332.298 67.251 333.577 68.3404 333.577 70.5749V75.2415H341.204C343.254 75.2415 344.407 76.1991 344.407 77.9927C344.407 79.7864 343.254 80.8048 341.204 80.8048H333.577V96.4108C333.577 103.96 335.562 106.58 341.142 106.58C343.127 106.58 344.422 107.279 344.6 109.012C344.803 110.963 343.945 112.083 341.909 112.275C341.269 112.331 340.624 112.336 340.051 112.336V112.341Z" fill="#293F96"/>
    <path d="M169.94 108.678L169.275 68.4216C168.92 66.4252 167.966 65.5233 165.833 65.5233H162.721C160.659 65.5233 159.304 66.4252 158.663 68.1632L145.01 100.951L131.331 68.1632C130.692 66.4252 129.341 65.5233 127.275 65.5233H124.512C122.38 65.5233 121.024 66.4252 120.669 68.4216L120.004 108.678C119.938 110.978 120.785 112.159 123.207 112.159H124.736C127.168 112.199 127.869 110.684 127.869 108.744L127.32 75.5709L139.984 106.119C140.623 107.857 141.973 108.759 144.04 108.759H145.975C148.036 108.759 149.392 107.857 150.032 106.119L162.695 75.5709L162.147 108.744C162.147 110.684 162.848 112.194 165.279 112.159H166.731C169.149 112.159 170.002 110.983 169.936 108.678H169.94Z" fill="#293F96"/>
    <path d="M311.729 70.8025C314.079 70.8025 315.984 68.9016 315.984 66.5565C315.984 64.2115 314.079 62.3105 311.729 62.3105C309.379 62.3105 307.474 64.2115 307.474 66.5565C307.474 68.9016 309.379 70.8025 311.729 70.8025Z" fill="#F16752"/>
  </g>
  <defs>
    <clipPath id="clip0_4360_40654">
      <rect width="323" height="94" fill="white" transform="translate(38 38)"/>
    </clipPath>
  </defs>
</svg>
