<svg viewBox="45 38 40 92" fill="none" xmlns="http://www.w3.org/2000/svg">
  <path d="M40.9123 102.82C39.9749 102.815 39.0677 102.546 38.2807 102.048C36.8521 101.143 36 99.6005 36 97.9189L36.015 57.23L80.5714 57.2399L80.6115 88.3959C80.6115 89.7044 80.1002 90.9384 79.1629 91.8638C78.2306 92.7892 76.9874 93.3016 75.6691 93.3016H75.6391C72.9273 93.2868 70.7268 91.0926 70.7268 88.3959L70.6867 67.0415H45.8948L45.8797 97.9139C45.8797 100.621 43.6642 102.82 40.9373 102.815H40.9123V102.82Z" fill="#293F96"/>
  <path d="M58.1201 52.4984C62.1536 52.4984 65.4234 49.2528 65.4234 45.2492C65.4234 41.2456 62.1536 38 58.1201 38C54.0866 38 50.8169 41.2456 50.8169 45.2492C50.8169 49.2528 54.0866 52.4984 58.1201 52.4984Z" fill="#293F96"/>
  <path d="M93.0874 65.2155C94.0247 65.2205 94.932 65.4891 95.7189 65.9866C97.1475 66.8922 97.9997 68.4395 97.9997 70.1213L97.9847 110.805L53.4282 110.795L53.3882 79.6392C53.3882 78.3307 53.8995 77.0967 54.8368 76.1713C55.7691 75.2459 57.0122 74.7335 58.3305 74.7335H58.3606C61.0723 74.7483 63.2729 76.9425 63.2729 79.6392L63.313 100.994H88.11L88.125 70.1213C88.125 67.4146 90.3406 65.2155 93.0673 65.2205H93.0924L93.0874 65.2155Z" fill="#F16752"/>
  <path d="M75.8643 130C79.8785 130 83.1326 126.77 83.1326 122.786C83.1326 118.802 79.8785 115.572 75.8643 115.572C71.8503 115.572 68.5962 118.802 68.5962 122.786C68.5962 126.77 71.8503 130 75.8643 130Z" fill="#F16752"/>
</svg>
