<svg viewBox="0 0 24 24" fill="currentColor" xmlns="http://www.w3.org/2000/svg">
  <mask id="mask0_11345_2776" style="mask-type:alpha" maskUnits="userSpaceOnUse" x="0" y="0" width="24" height="24">
    <rect width="24" height="24" fill="currentColor"/>
  </mask>
  <g mask="url(#mask0_11345_2776)">
    <path d="M12 17.6345C10.9642 17.6345 9.96675 17.8124 9.00775 18.1683C8.04875 18.5241 7.16475 19.0642 6.35575 19.7885V19.9423C6.38142 19.9616 6.40708 19.976 6.43275 19.9855C6.45825 19.9952 6.48708 20 6.51925 20H17.4615C17.4937 20 17.5209 19.9952 17.5433 19.9855C17.5658 19.976 17.5898 19.9616 17.6155 19.9423V19.7885C16.8193 19.0642 15.9449 18.5241 14.9923 18.1683C14.0398 17.8124 13.0423 17.6345 12 17.6345ZM5 18.9848C5.9 18.1014 6.94583 17.4056 8.1375 16.8973C9.32917 16.3889 10.6167 16.1348 12 16.1348C13.3833 16.1348 14.6708 16.3889 15.8625 16.8973C17.0542 17.4056 18.1 18.1014 19 18.9848V6.30777C19 6.23077 18.9679 6.16026 18.9038 6.09626C18.8398 6.0321 18.7692 6.00002 18.6923 6.00002H5.30775C5.23075 6.00002 5.16025 6.0321 5.09625 6.09626C5.03208 6.16026 5 6.23077 5 6.30777V18.9848ZM12 13.75C11.0975 13.75 10.3302 13.434 9.698 12.802C9.066 12.1698 8.75 11.4025 8.75 10.5C8.75 9.59752 9.066 8.83018 9.698 8.19801C10.3302 7.56601 11.0975 7.25002 12 7.25002C12.9025 7.25002 13.6698 7.56601 14.302 8.19801C14.934 8.83018 15.25 9.59752 15.25 10.5C15.25 11.4025 14.934 12.1698 14.302 12.802C13.6698 13.434 12.9025 13.75 12 13.75ZM12 12.25C12.4808 12.25 12.8927 12.0785 13.2355 11.7355C13.5785 11.3927 13.75 10.9808 13.75 10.5C13.75 10.0192 13.5785 9.60735 13.2355 9.26452C12.8927 8.92152 12.4808 8.75002 12 8.75002C11.5192 8.75002 11.1073 8.92152 10.7645 9.26452C10.4215 9.60735 10.25 10.0192 10.25 10.5C10.25 10.9808 10.4215 11.3927 10.7645 11.7355C11.1073 12.0785 11.5192 12.25 12 12.25ZM5.30775 21.5C4.80258 21.5 4.375 21.325 4.025 20.975C3.675 20.625 3.5 20.1974 3.5 19.6923V6.30777C3.5 5.8026 3.675 5.37502 4.025 5.02502C4.375 4.67502 4.80258 4.50002 5.30775 4.50002H6.69225V2.38477H8.23075V4.50002H15.8077V2.38477H17.3077V4.50002H18.6923C19.1974 4.50002 19.625 4.67502 19.975 5.02502C20.325 5.37502 20.5 5.8026 20.5 6.30777V19.6923C20.5 20.1974 20.325 20.625 19.975 20.975C19.625 21.325 19.1974 21.5 18.6923 21.5H5.30775Z" fill="currentColor"/>
  </g>
</svg>
