<svg viewBox="0 0 24 24" fill="currentColor" xmlns="http://www.w3.org/2000/svg">
  <mask id="mask0_11342_2279" style="mask-type:alpha" maskUnits="userSpaceOnUse" x="0" y="0" width="24" height="24">
    <rect width="24" height="24" fill="currentColor"/>
  </mask>
  <g mask="url(#mask0_11342_2279)">
    <path d="M12.0017 21.5C10.6877 21.5 9.45267 21.2507 8.2965 20.752C7.14033 20.2533 6.13467 19.5766 5.2795 18.7218C4.42433 17.8669 3.74725 16.8617 3.24825 15.706C2.74942 14.5503 2.5 13.3156 2.5 12.0017C2.5 10.6877 2.74942 9.45267 3.24825 8.2965C3.74692 7.14033 4.42375 6.13467 5.27875 5.2795C6.13375 4.42433 7.13917 3.74725 8.295 3.24825C9.45083 2.74942 10.6858 2.5 12 2.5C12.691 2.5 13.3603 2.56925 14.0078 2.70775C14.6551 2.84625 15.2743 3.04883 15.8652 3.3155V4.998C15.2947 4.684 14.6845 4.43917 14.0345 4.2635C13.3845 4.08783 12.7063 4 12 4C9.78333 4 7.89583 4.77917 6.3375 6.3375C4.77917 7.89583 4 9.78333 4 12C4 14.2167 4.77917 16.1042 6.3375 17.6625C7.89583 19.2208 9.78333 20 12 20C14.2167 20 16.1042 19.2208 17.6625 17.6625C19.2208 16.1042 20 14.2167 20 12C20 11.4923 19.9523 10.9997 19.8568 10.522C19.7612 10.0445 19.6283 9.58208 19.4578 9.13475H21.0693C21.2127 9.59242 21.3204 10.0567 21.3923 10.5275C21.4641 10.9983 21.5 11.4892 21.5 12C21.5 13.3142 21.2507 14.5492 20.752 15.705C20.2533 16.8608 19.5766 17.8663 18.7218 18.7213C17.8669 19.5763 16.8617 20.2531 15.706 20.7518C14.5503 21.2506 13.3156 21.5 12.0017 21.5ZM20.25 6.75V4.75H18.25V3.25H20.25V1.25H21.75V3.25H23.75V4.75H21.75V6.75H20.25ZM15.406 10.8077C15.77 10.8077 16.0786 10.6803 16.3318 10.4255C16.5849 10.1708 16.7115 9.86158 16.7115 9.49775C16.7115 9.13392 16.5842 8.82542 16.3295 8.57225C16.0748 8.31892 15.7655 8.19225 15.4015 8.19225C15.0377 8.19225 14.7292 8.31967 14.476 8.5745C14.2228 8.82917 14.0962 9.13842 14.0962 9.50225C14.0962 9.86608 14.2236 10.1746 14.4783 10.4277C14.7329 10.6811 15.0422 10.8077 15.406 10.8077ZM8.5985 10.8077C8.96233 10.8077 9.27083 10.6803 9.524 10.4255C9.77717 10.1708 9.90375 9.86158 9.90375 9.49775C9.90375 9.13392 9.77642 8.82542 9.52175 8.57225C9.26708 8.31892 8.95783 8.19225 8.594 8.19225C8.23 8.19225 7.92142 8.31967 7.66825 8.5745C7.41508 8.82917 7.2885 9.13842 7.2885 9.50225C7.2885 9.86608 7.41583 10.1746 7.6705 10.4277C7.92517 10.6811 8.2345 10.8077 8.5985 10.8077ZM12 17.1923C13.053 17.1923 14.0092 16.9003 14.8685 16.3163C15.728 15.7323 16.3628 14.9602 16.773 14H7.227C7.63717 14.9602 8.272 15.7323 9.1315 16.3163C9.99083 16.9003 10.947 17.1923 12 17.1923Z" fill="currentColor"/>
  </g>
</svg>
