<svg viewBox="0 0 16 16" fill="currentColor" xmlns="http://www.w3.org/2000/svg">
  <g clip-path="url(#clip0_4274_40010)">
    <mask id="mask0_4274_40010" style="mask-type:alpha" maskUnits="userSpaceOnUse" x="0" y="0" width="16" height="16">
      <rect width="16" height="16" fill="currentColor"/>
    </mask>
    <g mask="url(#mask0_4274_40010)">
      <path d="M7.99984 10.6667C8.83317 10.6667 9.54161 10.3751 10.1252 9.79202C10.7083 9.20846 10.9998 8.50002 10.9998 7.66669C10.9998 6.83335 10.7083 6.12491 10.1252 5.54135C9.54161 4.95824 8.83317 4.66669 7.99984 4.66669C7.1665 4.66669 6.45806 4.95824 5.8745 5.54135C5.29139 6.12491 4.99984 6.83335 4.99984 7.66669C4.99984 8.50002 5.29139 9.20846 5.8745 9.79202C6.45806 10.3751 7.1665 10.6667 7.99984 10.6667ZM7.99984 9.46669C7.49984 9.46669 7.07495 9.29158 6.72517 8.94135C6.37495 8.59158 6.19984 8.16669 6.19984 7.66669C6.19984 7.16669 6.37495 6.74158 6.72517 6.39135C7.07495 6.04158 7.49984 5.86669 7.99984 5.86669C8.49984 5.86669 8.92495 6.04158 9.27517 6.39135C9.62495 6.74158 9.79984 7.16669 9.79984 7.66669C9.79984 8.16669 9.62495 8.59158 9.27517 8.94135C8.92495 9.29158 8.49984 9.46669 7.99984 9.46669ZM7.99984 12.6667C6.37761 12.6667 4.89984 12.2138 3.5665 11.308C2.23317 10.4027 1.2665 9.18891 0.666504 7.66669C1.2665 6.14446 2.23317 4.93046 3.5665 4.02469C4.89984 3.11935 6.37761 2.66669 7.99984 2.66669C9.62206 2.66669 11.0998 3.11935 12.4332 4.02469C13.7665 4.93046 14.7332 6.14446 15.3332 7.66669C14.7332 9.18891 13.7665 10.4027 12.4332 11.308C11.0998 12.2138 9.62206 12.6667 7.99984 12.6667ZM7.99984 11.3334C9.25539 11.3334 10.4083 11.0027 11.4585 10.3414C12.5083 9.68047 13.3109 8.78891 13.8665 7.66669C13.3109 6.54446 12.5083 5.65269 11.4585 4.99135C10.4083 4.33046 9.25539 4.00002 7.99984 4.00002C6.74428 4.00002 5.59139 4.33046 4.54117 4.99135C3.49139 5.65269 2.68873 6.54446 2.13317 7.66669C2.68873 8.78891 3.49139 9.68047 4.54117 10.3414C5.59139 11.0027 6.74428 11.3334 7.99984 11.3334Z" fill="currentColor"/>
    </g>
  </g>
  <defs>
    <clipPath id="clip0_4274_40010">
      <rect width="16" height="16" fill="white"/>
    </clipPath>
  </defs>
</svg>
